<?xml version="1.0" encoding="UTF-8"?>
<svg xmlns="http://www.w3.org/2000/svg" xmlns:xlink="http://www.w3.org/1999/xlink" width="854" height="480" viewBox="0 0 854 480">
<defs>
<g>
<g id="glyph-0-0">
<path d="M 4.0625 -5.035156 C 4.117188 -5.109375 4.179688 -5.167969 4.242188 -5.203125 C 4.308594 -5.242188 4.378906 -5.261719 4.453125 -5.261719 C 4.582031 -5.261719 4.691406 -5.214844 4.773438 -5.125 C 4.855469 -5.035156 4.894531 -4.882812 4.894531 -4.671875 L 4.894531 -3.914062 C 4.894531 -3.699219 4.855469 -3.546875 4.773438 -3.457031 C 4.691406 -3.367188 4.582031 -3.320312 4.453125 -3.320312 C 4.335938 -3.320312 4.238281 -3.355469 4.167969 -3.421875 C 4.09375 -3.488281 4.042969 -3.613281 4.007812 -3.792969 C 3.988281 -3.914062 3.945312 -4.007812 3.886719 -4.074219 C 3.765625 -4.207031 3.601562 -4.308594 3.386719 -4.386719 C 3.175781 -4.464844 2.960938 -4.503906 2.746094 -4.503906 C 2.480469 -4.503906 2.238281 -4.449219 2.015625 -4.332031 C 1.792969 -4.214844 1.59375 -4.027344 1.421875 -3.769531 C 1.253906 -3.507812 1.167969 -3.199219 1.167969 -2.839844 L 1.167969 -2.261719 C 1.167969 -1.832031 1.324219 -1.476562 1.632812 -1.1875 C 1.945312 -0.902344 2.378906 -0.757812 2.929688 -0.757812 C 3.257812 -0.757812 3.539062 -0.804688 3.769531 -0.894531 C 3.902344 -0.945312 4.042969 -1.050781 4.191406 -1.203125 C 4.285156 -1.296875 4.359375 -1.355469 4.410156 -1.382812 C 4.460938 -1.410156 4.523438 -1.421875 4.589844 -1.421875 C 4.707031 -1.421875 4.8125 -1.378906 4.902344 -1.289062 C 4.992188 -1.199219 5.035156 -1.09375 5.035156 -0.972656 C 5.035156 -0.851562 4.972656 -0.71875 4.851562 -0.582031 C 4.675781 -0.378906 4.449219 -0.21875 4.171875 -0.105469 C 3.796875 0.0507812 3.386719 0.128906 2.933594 0.128906 C 2.40625 0.128906 1.933594 0.0234375 1.511719 -0.195312 C 1.167969 -0.367188 0.878906 -0.644531 0.636719 -1.019531 C 0.398438 -1.394531 0.277344 -1.800781 0.277344 -2.242188 L 0.277344 -2.847656 C 0.277344 -3.308594 0.386719 -3.742188 0.601562 -4.144531 C 0.816406 -4.542969 1.117188 -4.851562 1.496094 -5.070312 C 1.878906 -5.285156 2.285156 -5.394531 2.714844 -5.394531 C 2.972656 -5.394531 3.210938 -5.367188 3.4375 -5.304688 C 3.660156 -5.246094 3.867188 -5.15625 4.0625 -5.035156 Z "/>
</g>
<g id="glyph-0-1">
<path d="M 4.980469 -1.898438 C 4.980469 -1.554688 4.882812 -1.226562 4.695312 -0.90625 C 4.503906 -0.585938 4.222656 -0.332031 3.847656 -0.140625 C 3.472656 0.046875 3.082031 0.144531 2.675781 0.144531 C 2.269531 0.144531 1.882812 0.0507812 1.511719 -0.136719 C 1.140625 -0.324219 0.859375 -0.578125 0.664062 -0.898438 C 0.46875 -1.21875 0.375 -1.554688 0.375 -1.90625 C 0.375 -2.261719 0.472656 -2.609375 0.667969 -2.953125 C 0.863281 -3.296875 1.148438 -3.566406 1.515625 -3.761719 C 1.886719 -3.960938 2.273438 -4.058594 2.675781 -4.058594 C 3.078125 -4.058594 3.46875 -3.957031 3.84375 -3.757812 C 4.21875 -3.554688 4.5 -3.285156 4.691406 -2.945312 C 4.882812 -2.605469 4.980469 -2.253906 4.980469 -1.898438 Z M 4.089844 -1.890625 C 4.089844 -2.179688 3.984375 -2.441406 3.78125 -2.683594 C 3.5 -3.007812 3.132812 -3.167969 2.675781 -3.167969 C 2.273438 -3.167969 1.9375 -3.039062 1.667969 -2.78125 C 1.398438 -2.523438 1.261719 -2.226562 1.261719 -1.886719 C 1.261719 -1.609375 1.398438 -1.351562 1.671875 -1.109375 C 1.945312 -0.867188 2.277344 -0.746094 2.675781 -0.746094 C 3.074219 -0.746094 3.410156 -0.867188 3.679688 -1.109375 C 3.953125 -1.351562 4.089844 -1.613281 4.089844 -1.890625 Z "/>
</g>
<g id="glyph-0-2">
<path d="M 1.765625 -3.941406 L 1.765625 -3.640625 C 1.929688 -3.78125 2.105469 -3.886719 2.300781 -3.953125 C 2.496094 -4.023438 2.710938 -4.058594 2.9375 -4.058594 C 3.464844 -4.058594 3.882812 -3.894531 4.1875 -3.566406 C 4.429688 -3.308594 4.554688 -2.964844 4.554688 -2.542969 L 4.554688 -0.890625 C 4.742188 -0.890625 4.878906 -0.847656 4.96875 -0.765625 C 5.058594 -0.683594 5.105469 -0.574219 5.105469 -0.441406 C 5.105469 -0.3125 5.058594 -0.207031 4.96875 -0.125 C 4.878906 -0.0429688 4.722656 0 4.511719 0 L 3.707031 0 C 3.492188 0 3.339844 -0.0429688 3.25 -0.125 C 3.15625 -0.207031 3.113281 -0.3125 3.113281 -0.445312 C 3.113281 -0.578125 3.15625 -0.683594 3.246094 -0.765625 C 3.335938 -0.847656 3.476562 -0.890625 3.664062 -0.890625 L 3.664062 -2.570312 C 3.664062 -2.765625 3.613281 -2.90625 3.507812 -2.996094 C 3.371094 -3.109375 3.167969 -3.167969 2.894531 -3.167969 C 2.691406 -3.167969 2.507812 -3.128906 2.355469 -3.050781 C 2.199219 -2.96875 2.003906 -2.800781 1.765625 -2.542969 L 1.765625 -0.890625 C 1.996094 -0.890625 2.144531 -0.867188 2.210938 -0.824219 C 2.351562 -0.738281 2.421875 -0.609375 2.421875 -0.441406 C 2.421875 -0.3125 2.375 -0.207031 2.285156 -0.125 C 2.195312 -0.0429688 2.042969 0 1.828125 0 L 0.816406 0 C 0.601562 0 0.449219 -0.0429688 0.359375 -0.125 C 0.265625 -0.207031 0.222656 -0.3125 0.222656 -0.445312 C 0.222656 -0.609375 0.289062 -0.734375 0.429688 -0.824219 C 0.5 -0.867188 0.648438 -0.890625 0.875 -0.890625 L 0.875 -3.050781 C 0.6875 -3.050781 0.550781 -3.09375 0.460938 -3.175781 C 0.371094 -3.261719 0.324219 -3.367188 0.324219 -3.5 C 0.324219 -3.628906 0.371094 -3.734375 0.460938 -3.816406 C 0.554688 -3.898438 0.707031 -3.941406 0.921875 -3.941406 Z "/>
</g>
<g id="glyph-0-3">
<path d="M 2.449219 -3.050781 L 2.449219 -1.265625 C 2.449219 -1.074219 2.488281 -0.949219 2.566406 -0.890625 C 2.6875 -0.792969 2.902344 -0.746094 3.214844 -0.746094 C 3.671875 -0.746094 4.089844 -0.84375 4.476562 -1.039062 C 4.625 -1.113281 4.738281 -1.148438 4.824219 -1.148438 C 4.9375 -1.148438 5.039062 -1.105469 5.125 -1.019531 C 5.210938 -0.933594 5.253906 -0.828125 5.253906 -0.703125 C 5.253906 -0.585938 5.207031 -0.488281 5.113281 -0.402344 C 4.972656 -0.265625 4.691406 -0.140625 4.273438 -0.0273438 C 3.855469 0.0859375 3.503906 0.144531 3.214844 0.144531 C 2.664062 0.144531 2.25 0.0234375 1.972656 -0.214844 C 1.695312 -0.453125 1.558594 -0.746094 1.558594 -1.09375 L 1.558594 -3.050781 L 1.238281 -3.050781 C 1.023438 -3.050781 0.871094 -3.09375 0.777344 -3.175781 C 0.6875 -3.257812 0.640625 -3.367188 0.640625 -3.5 C 0.640625 -3.628906 0.6875 -3.734375 0.777344 -3.816406 C 0.871094 -3.898438 1.023438 -3.941406 1.238281 -3.941406 L 1.558594 -3.941406 L 1.558594 -4.746094 C 1.558594 -4.960938 1.597656 -5.109375 1.683594 -5.203125 C 1.765625 -5.292969 1.871094 -5.339844 2.003906 -5.339844 C 2.136719 -5.339844 2.242188 -5.292969 2.324219 -5.203125 C 2.40625 -5.113281 2.449219 -4.957031 2.449219 -4.746094 L 2.449219 -3.941406 L 4.09375 -3.941406 C 4.308594 -3.941406 4.460938 -3.898438 4.550781 -3.816406 C 4.640625 -3.734375 4.6875 -3.628906 4.6875 -3.496094 C 4.6875 -3.363281 4.640625 -3.257812 4.550781 -3.175781 C 4.460938 -3.09375 4.308594 -3.050781 4.09375 -3.050781 Z "/>
</g>
<g id="glyph-0-4">
<path d="M 2.484375 -3.941406 L 2.484375 -3.386719 C 2.855469 -3.65625 3.152344 -3.835938 3.367188 -3.925781 C 3.582031 -4.015625 3.785156 -4.058594 3.972656 -4.058594 C 4.261719 -4.058594 4.542969 -3.953125 4.8125 -3.738281 C 5 -3.59375 5.089844 -3.445312 5.089844 -3.292969 C 5.089844 -3.167969 5.046875 -3.058594 4.960938 -2.972656 C 4.871094 -2.882812 4.765625 -2.839844 4.640625 -2.839844 C 4.53125 -2.839844 4.414062 -2.894531 4.292969 -3.003906 C 4.171875 -3.113281 4.0625 -3.167969 3.96875 -3.167969 C 3.84375 -3.167969 3.65625 -3.089844 3.410156 -2.933594 C 3.164062 -2.777344 2.851562 -2.542969 2.484375 -2.230469 L 2.484375 -0.890625 L 3.75 -0.890625 C 3.964844 -0.890625 4.117188 -0.847656 4.207031 -0.765625 C 4.300781 -0.683594 4.34375 -0.574219 4.34375 -0.441406 C 4.34375 -0.3125 4.300781 -0.207031 4.207031 -0.125 C 4.117188 -0.0429688 3.964844 0 3.75 0 L 1.0625 0 C 0.847656 0 0.695312 -0.0429688 0.605469 -0.125 C 0.515625 -0.207031 0.46875 -0.3125 0.46875 -0.445312 C 0.46875 -0.578125 0.515625 -0.683594 0.605469 -0.765625 C 0.695312 -0.847656 0.847656 -0.890625 1.0625 -0.890625 L 1.59375 -0.890625 L 1.59375 -3.050781 L 1.273438 -3.050781 C 1.058594 -3.050781 0.90625 -3.09375 0.8125 -3.175781 C 0.722656 -3.257812 0.675781 -3.367188 0.675781 -3.5 C 0.675781 -3.628906 0.722656 -3.734375 0.8125 -3.816406 C 0.90625 -3.898438 1.058594 -3.941406 1.273438 -3.941406 Z "/>
</g>
<g id="glyph-0-5">
<path d="M 3.113281 -5.628906 L 3.113281 -0.890625 L 4.179688 -0.890625 C 4.394531 -0.890625 4.546875 -0.847656 4.636719 -0.765625 C 4.730469 -0.683594 4.773438 -0.574219 4.773438 -0.441406 C 4.773438 -0.3125 4.730469 -0.207031 4.636719 -0.125 C 4.546875 -0.0429688 4.394531 0 4.179688 0 L 1.15625 0 C 0.941406 0 0.789062 -0.0429688 0.695312 -0.125 C 0.605469 -0.207031 0.558594 -0.3125 0.558594 -0.445312 C 0.558594 -0.578125 0.605469 -0.683594 0.695312 -0.765625 C 0.789062 -0.847656 0.941406 -0.890625 1.15625 -0.890625 L 2.222656 -0.890625 L 2.222656 -4.738281 L 1.507812 -4.738281 C 1.296875 -4.738281 1.144531 -4.78125 1.050781 -4.863281 C 0.957031 -4.945312 0.910156 -5.054688 0.910156 -5.1875 C 0.910156 -5.316406 0.957031 -5.421875 1.046875 -5.507812 C 1.140625 -5.589844 1.292969 -5.628906 1.507812 -5.628906 Z "/>
</g>
<g id="glyph-0-6">
<path d="M 4.902344 -1.519531 L 1.25 -1.519531 C 1.34375 -1.289062 1.507812 -1.101562 1.742188 -0.960938 C 1.976562 -0.816406 2.296875 -0.746094 2.699219 -0.746094 C 3.03125 -0.746094 3.46875 -0.816406 4.015625 -0.960938 C 4.242188 -1.019531 4.398438 -1.046875 4.484375 -1.046875 C 4.601562 -1.046875 4.703125 -1.003906 4.785156 -0.921875 C 4.863281 -0.835938 4.90625 -0.730469 4.90625 -0.601562 C 4.90625 -0.488281 4.863281 -0.390625 4.773438 -0.308594 C 4.660156 -0.203125 4.375 -0.0976562 3.929688 -0.00390625 C 3.480469 0.09375 3.046875 0.144531 2.636719 0.144531 C 1.921875 0.144531 1.355469 -0.0585938 0.925781 -0.460938 C 0.5 -0.863281 0.285156 -1.355469 0.285156 -1.945312 C 0.285156 -2.570312 0.515625 -3.078125 0.980469 -3.46875 C 1.441406 -3.863281 1.972656 -4.058594 2.574219 -4.058594 C 2.9375 -4.058594 3.269531 -3.996094 3.570312 -3.867188 C 3.871094 -3.738281 4.097656 -3.601562 4.246094 -3.457031 C 4.453125 -3.242188 4.625 -2.976562 4.761719 -2.660156 C 4.855469 -2.441406 4.902344 -2.1875 4.902344 -1.898438 Z M 3.914062 -2.410156 C 3.777344 -2.664062 3.601562 -2.855469 3.382812 -2.980469 C 3.160156 -3.105469 2.898438 -3.167969 2.597656 -3.167969 C 2.296875 -3.167969 2.035156 -3.105469 1.8125 -2.980469 C 1.59375 -2.855469 1.414062 -2.664062 1.277344 -2.410156 Z "/>
</g>
<g id="glyph-0-7">
<path d="M 4.710938 -5.628906 L 4.710938 -0.890625 L 4.863281 -0.890625 C 5.074219 -0.890625 5.226562 -0.847656 5.316406 -0.765625 C 5.410156 -0.683594 5.457031 -0.574219 5.457031 -0.441406 C 5.457031 -0.3125 5.410156 -0.207031 5.320312 -0.125 C 5.230469 -0.0429688 5.074219 0 4.863281 0 L 3.820312 0 L 3.820312 -0.21875 C 3.617188 -0.0976562 3.40625 -0.0078125 3.183594 0.0507812 C 2.960938 0.113281 2.734375 0.144531 2.496094 0.144531 C 1.828125 0.144531 1.289062 -0.0507812 0.882812 -0.4375 C 0.472656 -0.824219 0.269531 -1.304688 0.269531 -1.878906 C 0.269531 -2.480469 0.484375 -2.996094 0.910156 -3.421875 C 1.339844 -3.847656 1.863281 -4.058594 2.476562 -4.058594 C 2.710938 -4.058594 2.9375 -4.023438 3.160156 -3.953125 C 3.382812 -3.882812 3.601562 -3.773438 3.820312 -3.632812 L 3.820312 -4.738281 L 3.667969 -4.738281 C 3.453125 -4.738281 3.300781 -4.78125 3.210938 -4.863281 C 3.117188 -4.945312 3.074219 -5.050781 3.074219 -5.183594 C 3.074219 -5.316406 3.117188 -5.421875 3.210938 -5.507812 C 3.300781 -5.589844 3.453125 -5.628906 3.667969 -5.628906 Z M 3.820312 -1.851562 C 3.820312 -2.21875 3.691406 -2.53125 3.433594 -2.785156 C 3.175781 -3.039062 2.859375 -3.167969 2.488281 -3.167969 C 2.117188 -3.167969 1.804688 -3.042969 1.546875 -2.785156 C 1.289062 -2.53125 1.160156 -2.226562 1.160156 -1.867188 C 1.160156 -1.539062 1.273438 -1.269531 1.507812 -1.0625 C 1.738281 -0.851562 2.066406 -0.746094 2.488281 -0.746094 C 2.90625 -0.746094 3.234375 -0.851562 3.46875 -1.0625 C 3.703125 -1.273438 3.820312 -1.535156 3.820312 -1.851562 Z "/>
</g>
<g id="glyph-0-8">
<rect x="0" y="0" width="0" height="0" mask="url(#mask-0)"/>
</g>
<g id="glyph-0-9">
<path d="M 2.988281 -5.628906 L 2.988281 -4.6875 L 1.925781 -4.6875 L 1.925781 -5.628906 Z M 3.109375 -3.941406 L 3.109375 -0.890625 L 4.175781 -0.890625 C 4.390625 -0.890625 4.542969 -0.847656 4.632812 -0.765625 C 4.722656 -0.683594 4.769531 -0.574219 4.769531 -0.441406 C 4.769531 -0.3125 4.726562 -0.207031 4.632812 -0.125 C 4.542969 -0.0429688 4.390625 0 4.175781 0 L 1.148438 0 C 0.933594 0 0.785156 -0.0429688 0.691406 -0.125 C 0.601562 -0.207031 0.554688 -0.3125 0.554688 -0.445312 C 0.554688 -0.578125 0.601562 -0.683594 0.691406 -0.765625 C 0.78125 -0.847656 0.9375 -0.890625 1.148438 -0.890625 L 2.21875 -0.890625 L 2.21875 -3.050781 L 1.5 -3.050781 C 1.289062 -3.050781 1.140625 -3.09375 1.046875 -3.175781 C 0.953125 -3.257812 0.90625 -3.367188 0.90625 -3.5 C 0.90625 -3.628906 0.953125 -3.734375 1.042969 -3.816406 C 1.132812 -3.898438 1.289062 -3.941406 1.5 -3.941406 Z "/>
</g>
<g id="glyph-0-10">
<path d="M 3.628906 -2.898438 C 3.484375 -2.988281 3.332031 -3.054688 3.171875 -3.101562 C 3.011719 -3.144531 2.847656 -3.167969 2.675781 -3.167969 C 2.332031 -3.167969 2.054688 -3.113281 1.851562 -3 C 1.761719 -2.949219 1.71875 -2.898438 1.71875 -2.839844 C 1.71875 -2.773438 1.78125 -2.707031 1.902344 -2.644531 C 1.996094 -2.597656 2.199219 -2.550781 2.523438 -2.507812 C 3.113281 -2.425781 3.523438 -2.347656 3.753906 -2.265625 C 4.058594 -2.160156 4.292969 -2 4.457031 -1.789062 C 4.621094 -1.578125 4.707031 -1.355469 4.707031 -1.121094 C 4.707031 -0.800781 4.566406 -0.535156 4.285156 -0.320312 C 3.882812 -0.0117188 3.359375 0.144531 2.71875 0.144531 C 2.460938 0.144531 2.222656 0.121094 2.003906 0.0742188 C 1.785156 0.03125 1.585938 -0.0351562 1.402344 -0.121094 C 1.359375 -0.0820312 1.3125 -0.0546875 1.261719 -0.0351562 C 1.214844 -0.015625 1.164062 -0.00390625 1.109375 -0.00390625 C 0.972656 -0.00390625 0.863281 -0.0507812 0.777344 -0.140625 C 0.695312 -0.230469 0.65625 -0.386719 0.65625 -0.597656 L 0.65625 -0.898438 C 0.65625 -1.113281 0.695312 -1.265625 0.777344 -1.355469 C 0.859375 -1.449219 0.96875 -1.492188 1.101562 -1.492188 C 1.210938 -1.492188 1.300781 -1.464844 1.371094 -1.402344 C 1.445312 -1.34375 1.5 -1.242188 1.539062 -1.097656 C 1.675781 -0.980469 1.839844 -0.894531 2.03125 -0.835938 C 2.222656 -0.777344 2.441406 -0.746094 2.691406 -0.746094 C 3.097656 -0.746094 3.417969 -0.808594 3.640625 -0.9375 C 3.75 -1 3.800781 -1.066406 3.800781 -1.136719 C 3.800781 -1.253906 3.726562 -1.347656 3.574219 -1.421875 C 3.417969 -1.5 3.101562 -1.5625 2.621094 -1.613281 C 1.90625 -1.691406 1.429688 -1.835938 1.1875 -2.046875 C 0.949219 -2.257812 0.828125 -2.519531 0.828125 -2.832031 C 0.828125 -3.148438 0.964844 -3.414062 1.234375 -3.625 C 1.597656 -3.914062 2.074219 -4.058594 2.664062 -4.058594 C 2.871094 -4.058594 3.066406 -4.039062 3.257812 -4 C 3.445312 -3.960938 3.628906 -3.902344 3.800781 -3.820312 C 3.855469 -3.859375 3.910156 -3.890625 3.957031 -3.910156 C 4.003906 -3.929688 4.046875 -3.941406 4.089844 -3.941406 C 4.210938 -3.941406 4.3125 -3.894531 4.394531 -3.804688 C 4.472656 -3.714844 4.515625 -3.5625 4.515625 -3.347656 L 4.515625 -3.128906 C 4.515625 -2.933594 4.492188 -2.804688 4.445312 -2.734375 C 4.351562 -2.601562 4.226562 -2.535156 4.066406 -2.535156 C 3.960938 -2.535156 3.867188 -2.566406 3.785156 -2.636719 C 3.703125 -2.703125 3.652344 -2.789062 3.628906 -2.898438 Z "/>
</g>
<g id="glyph-0-11">
<path d="M 4.054688 -3.78125 C 4.160156 -3.882812 4.269531 -3.933594 4.382812 -3.933594 C 4.511719 -3.933594 4.617188 -3.886719 4.699219 -3.796875 C 4.78125 -3.703125 4.824219 -3.554688 4.824219 -3.34375 L 4.824219 -2.769531 C 4.824219 -2.554688 4.78125 -2.402344 4.699219 -2.3125 C 4.617188 -2.222656 4.507812 -2.179688 4.375 -2.179688 C 4.253906 -2.179688 4.152344 -2.214844 4.066406 -2.28125 C 4.007812 -2.335938 3.957031 -2.441406 3.925781 -2.601562 C 3.890625 -2.761719 3.804688 -2.882812 3.671875 -2.960938 C 3.4375 -3.097656 3.136719 -3.167969 2.773438 -3.167969 C 2.355469 -3.167969 2.019531 -3.046875 1.765625 -2.800781 C 1.511719 -2.554688 1.382812 -2.242188 1.382812 -1.867188 C 1.382812 -1.519531 1.507812 -1.246094 1.75 -1.042969 C 1.992188 -0.84375 2.394531 -0.742188 2.960938 -0.742188 C 3.332031 -0.742188 3.632812 -0.78125 3.867188 -0.855469 C 4.007812 -0.902344 4.136719 -0.980469 4.261719 -1.089844 C 4.386719 -1.203125 4.5 -1.257812 4.601562 -1.257812 C 4.722656 -1.257812 4.828125 -1.214844 4.914062 -1.125 C 5.003906 -1.035156 5.046875 -0.929688 5.046875 -0.808594 C 5.046875 -0.609375 4.914062 -0.425781 4.644531 -0.246094 C 4.246094 0.015625 3.660156 0.148438 2.890625 0.148438 C 2.199219 0.148438 1.660156 0.00390625 1.277344 -0.28125 C 0.753906 -0.667969 0.496094 -1.195312 0.496094 -1.863281 C 0.496094 -2.496094 0.707031 -3.019531 1.128906 -3.4375 C 1.550781 -3.851562 2.101562 -4.058594 2.78125 -4.058594 C 3.027344 -4.058594 3.257812 -4.035156 3.46875 -3.988281 C 3.679688 -3.941406 3.875 -3.875 4.054688 -3.78125 Z "/>
</g>
<g id="glyph-0-12">
<path d="M 4.558594 -3.941406 L 4.558594 -0.890625 C 4.746094 -0.890625 4.882812 -0.847656 4.972656 -0.765625 C 5.0625 -0.679688 5.109375 -0.574219 5.109375 -0.441406 C 5.109375 -0.3125 5.0625 -0.207031 4.972656 -0.125 C 4.882812 -0.0429688 4.726562 0 4.515625 0 L 3.667969 0 L 3.667969 -0.203125 C 3.414062 -0.0898438 3.171875 0 2.9375 0.0546875 C 2.707031 0.113281 2.488281 0.144531 2.277344 0.144531 C 1.984375 0.144531 1.734375 0.0820312 1.519531 -0.0429688 C 1.304688 -0.164062 1.136719 -0.335938 1.011719 -0.550781 C 0.921875 -0.707031 0.875 -0.902344 0.875 -1.136719 L 0.875 -3.050781 L 0.726562 -3.050781 C 0.511719 -3.050781 0.359375 -3.09375 0.265625 -3.175781 C 0.175781 -3.257812 0.128906 -3.367188 0.128906 -3.5 C 0.128906 -3.628906 0.175781 -3.734375 0.265625 -3.816406 C 0.359375 -3.898438 0.511719 -3.941406 0.726562 -3.941406 L 1.765625 -3.941406 L 1.765625 -1.292969 C 1.765625 -1.105469 1.8125 -0.96875 1.902344 -0.878906 C 1.996094 -0.789062 2.132812 -0.746094 2.320312 -0.746094 C 2.5 -0.746094 2.695312 -0.78125 2.902344 -0.851562 C 3.109375 -0.921875 3.363281 -1.050781 3.667969 -1.238281 L 3.667969 -3.050781 L 3.347656 -3.050781 C 3.132812 -3.050781 2.980469 -3.09375 2.890625 -3.175781 C 2.796875 -3.257812 2.753906 -3.367188 2.753906 -3.5 C 2.753906 -3.628906 2.796875 -3.734375 2.890625 -3.816406 C 2.980469 -3.898438 3.132812 -3.941406 3.347656 -3.941406 Z "/>
</g>
<g id="glyph-0-13">
<path d="M 3.347656 -0.445312 C 3.347656 -0.277344 3.289062 -0.140625 3.167969 -0.0273438 C 3.050781 0.0859375 2.886719 0.144531 2.679688 0.144531 C 2.46875 0.144531 2.304688 0.0859375 2.1875 -0.0273438 C 2.070312 -0.140625 2.007812 -0.277344 2.007812 -0.445312 C 2.007812 -0.613281 2.070312 -0.753906 2.1875 -0.867188 C 2.304688 -0.980469 2.46875 -1.039062 2.679688 -1.039062 C 2.886719 -1.039062 3.050781 -0.980469 3.167969 -0.867188 C 3.285156 -0.753906 3.347656 -0.613281 3.347656 -0.445312 Z "/>
</g>
</g>
<image id="source-303" x="0" y="0" width="0" height="0"/>
<mask id="mask-0">
<use xlink:href="#source-303"/>
</mask>
</defs>
<g fill="rgb(10.196078%, 10.196078%, 10.196078%)" fill-opacity="1">
<use xlink:href="#glyph-0-0" x="30" y="27.400391"/>
<use xlink:href="#glyph-0-1" x="35" y="27.400391"/>
<use xlink:href="#glyph-0-2" x="40" y="27.400391"/>
<use xlink:href="#glyph-0-3" x="45" y="27.400391"/>
<use xlink:href="#glyph-0-4" x="50" y="27.400391"/>
<use xlink:href="#glyph-0-1" x="55" y="27.400391"/>
<use xlink:href="#glyph-0-5" x="60" y="27.400391"/>
<use xlink:href="#glyph-0-5" x="65" y="27.400391"/>
<use xlink:href="#glyph-0-6" x="70" y="27.400391"/>
<use xlink:href="#glyph-0-7" x="75" y="27.400391"/>
<use xlink:href="#glyph-0-8" x="80" y="27.400391"/>
<use xlink:href="#glyph-0-7" x="85" y="27.400391"/>
<use xlink:href="#glyph-0-9" x="90" y="27.400391"/>
<use xlink:href="#glyph-0-10" x="95" y="27.400391"/>
<use xlink:href="#glyph-0-11" x="100" y="27.400391"/>
<use xlink:href="#glyph-0-5" x="105" y="27.400391"/>
<use xlink:href="#glyph-0-1" x="110" y="27.400391"/>
<use xlink:href="#glyph-0-10" x="115" y="27.400391"/>
<use xlink:href="#glyph-0-12" x="120" y="27.400391"/>
<use xlink:href="#glyph-0-4" x="125" y="27.400391"/>
<use xlink:href="#glyph-0-6" x="130" y="27.400391"/>
<use xlink:href="#glyph-0-13" x="135" y="27.400391"/>
</g>
</svg>
