<?xml version="1.0" encoding="UTF-8"?>
<svg xmlns="http://www.w3.org/2000/svg" xmlns:xlink="http://www.w3.org/1999/xlink" width="854" height="480" viewBox="0 0 854 480">
<defs>
<g>
<g id="glyph-0-0">
<path d="M 4.628906 -4.929688 L 4.628906 -2 L 6.679688 -2 C 7.160156 -2 7.503906 -1.910156 7.710938 -1.722656 C 7.914062 -1.539062 8.015625 -1.296875 8.015625 -0.996094 C 8.015625 -0.703125 7.914062 -0.464844 7.710938 -0.277344 C 7.503906 -0.09375 7.160156 0 6.679688 0 L 2.3125 0 C 1.832031 0 1.488281 -0.09375 1.285156 -0.277344 C 1.078125 -0.464844 0.976562 -0.707031 0.976562 -1.007812 C 0.976562 -1.300781 1.082031 -1.539062 1.289062 -1.722656 C 1.496094 -1.910156 1.839844 -2 2.3125 -2 L 2.625 -2 L 2.625 -9.835938 L 2.3125 -9.835938 C 1.832031 -9.835938 1.488281 -9.925781 1.285156 -10.113281 C 1.078125 -10.296875 0.976562 -10.539062 0.976562 -10.839844 C 0.976562 -11.140625 1.078125 -11.382812 1.285156 -11.566406 C 1.488281 -11.753906 1.832031 -11.84375 2.3125 -11.84375 L 11.738281 -11.835938 L 11.738281 -8.78125 C 11.738281 -8.304688 11.644531 -7.964844 11.460938 -7.757812 C 11.273438 -7.554688 11.03125 -7.453125 10.734375 -7.453125 C 10.441406 -7.453125 10.199219 -7.550781 10.015625 -7.753906 C 9.828125 -7.957031 9.734375 -8.296875 9.734375 -8.78125 L 9.734375 -9.835938 L 4.628906 -9.835938 L 4.628906 -6.933594 L 6.386719 -6.933594 C 6.386719 -7.453125 6.4375 -7.789062 6.53125 -7.9375 C 6.734375 -8.257812 7.023438 -8.417969 7.390625 -8.417969 C 7.683594 -8.417969 7.925781 -8.316406 8.109375 -8.109375 C 8.296875 -7.90625 8.390625 -7.5625 8.390625 -7.078125 L 8.390625 -4.773438 C 8.390625 -4.292969 8.296875 -3.949219 8.109375 -3.746094 C 7.925781 -3.539062 7.683594 -3.4375 7.382812 -3.4375 C 7.019531 -3.4375 6.734375 -3.597656 6.53125 -3.914062 C 6.433594 -4.066406 6.386719 -4.40625 6.386719 -4.929688 Z "/>
</g>
<g id="glyph-0-1">
<path d="M 11.621094 -5.917969 C 11.621094 -4.140625 11.054688 -2.660156 9.925781 -1.480469 C 8.796875 -0.296875 7.492188 0.292969 6.007812 0.292969 C 4.671875 0.292969 3.46875 -0.199219 2.390625 -1.179688 C 1.0625 -2.398438 0.398438 -3.976562 0.398438 -5.917969 C 0.398438 -7.859375 1.0625 -9.441406 2.390625 -10.664062 C 3.464844 -11.648438 4.671875 -12.140625 6.007812 -12.140625 C 7.492188 -12.140625 8.796875 -11.546875 9.925781 -10.367188 C 11.054688 -9.183594 11.621094 -7.703125 11.621094 -5.917969 Z M 9.617188 -5.917969 C 9.617188 -7.136719 9.25 -8.144531 8.515625 -8.941406 C 7.78125 -9.738281 6.945312 -10.136719 6.007812 -10.136719 C 5.074219 -10.136719 4.242188 -9.734375 3.507812 -8.9375 C 2.769531 -8.136719 2.402344 -7.128906 2.402344 -5.917969 C 2.402344 -4.707031 2.769531 -3.703125 3.507812 -2.90625 C 4.242188 -2.109375 5.074219 -1.710938 6.007812 -1.710938 C 6.945312 -1.710938 7.78125 -2.105469 8.515625 -2.898438 C 9.25 -3.695312 9.617188 -4.699219 9.617188 -5.917969 Z "/>
</g>
<g id="glyph-0-2">
<path d="M 5.164062 -9.835938 L 5.164062 -2 L 9.484375 -2 L 9.484375 -3.898438 C 9.484375 -4.378906 9.574219 -4.722656 9.761719 -4.925781 C 9.945312 -5.132812 10.1875 -5.234375 10.488281 -5.234375 C 10.78125 -5.234375 11.019531 -5.132812 11.207031 -4.925781 C 11.390625 -4.722656 11.484375 -4.378906 11.484375 -3.898438 L 11.484375 0 L 2 0 C 1.519531 0 1.175781 -0.09375 0.972656 -0.277344 C 0.765625 -0.464844 0.664062 -0.707031 0.664062 -1.007812 C 0.664062 -1.300781 0.765625 -1.539062 0.972656 -1.722656 C 1.175781 -1.910156 1.519531 -2 2 -2 L 3.164062 -2 L 3.164062 -9.835938 L 2 -9.835938 C 1.519531 -9.835938 1.175781 -9.925781 0.972656 -10.113281 C 0.765625 -10.296875 0.664062 -10.539062 0.664062 -10.839844 C 0.664062 -11.140625 0.765625 -11.382812 0.972656 -11.566406 C 1.175781 -11.753906 1.519531 -11.84375 2 -11.84375 L 6.335938 -11.835938 C 6.820312 -11.835938 7.164062 -11.746094 7.367188 -11.5625 C 7.574219 -11.378906 7.675781 -11.140625 7.675781 -10.839844 C 7.675781 -10.539062 7.574219 -10.296875 7.367188 -10.113281 C 7.164062 -9.925781 6.820312 -9.835938 6.335938 -9.835938 Z "/>
</g>
<g id="glyph-0-3">
<path d="M 1.523438 -2 L 1.523438 -9.835938 C 1.101562 -9.839844 0.789062 -9.9375 0.585938 -10.121094 C 0.382812 -10.308594 0.28125 -10.546875 0.28125 -10.839844 C 0.28125 -11.140625 0.386719 -11.382812 0.589844 -11.566406 C 0.796875 -11.753906 1.140625 -11.84375 1.621094 -11.84375 L 5.8125 -11.835938 C 6.460938 -11.835938 7.097656 -11.714844 7.71875 -11.476562 C 8.339844 -11.234375 8.839844 -10.929688 9.21875 -10.554688 C 9.503906 -10.277344 9.804688 -9.890625 10.113281 -9.40625 C 10.421875 -8.917969 10.65625 -8.429688 10.8125 -7.949219 C 10.96875 -7.46875 11.046875 -6.878906 11.046875 -6.179688 L 11.046875 -5.226562 C 11.046875 -4.378906 10.902344 -3.628906 10.617188 -2.972656 C 10.328125 -2.320312 9.953125 -1.785156 9.488281 -1.371094 C 9.023438 -0.957031 8.585938 -0.65625 8.171875 -0.460938 C 7.523438 -0.152344 6.679688 0 5.644531 0 L 1.621094 0 C 1.140625 0 0.796875 -0.09375 0.589844 -0.277344 C 0.386719 -0.464844 0.28125 -0.707031 0.28125 -1.007812 C 0.28125 -1.300781 0.386719 -1.539062 0.589844 -1.726562 C 0.796875 -1.917969 1.105469 -2.007812 1.523438 -2 Z M 3.523438 -2 L 5.65625 -2 C 6.449219 -2 7.046875 -2.117188 7.453125 -2.34375 C 7.980469 -2.644531 8.375 -3.023438 8.640625 -3.484375 C 8.910156 -3.949219 9.042969 -4.546875 9.042969 -5.28125 L 9.042969 -6.230469 C 9.042969 -6.863281 8.921875 -7.414062 8.679688 -7.890625 C 8.304688 -8.632812 7.878906 -9.140625 7.40625 -9.417969 C 6.933594 -9.695312 6.34375 -9.835938 5.632812 -9.835938 L 3.523438 -9.835938 Z "/>
</g>
<g id="glyph-0-4">
<path d="M 1.914062 -2 L 1.914062 -9.835938 L 1.601562 -9.835938 C 1.121094 -9.835938 0.777344 -9.925781 0.570312 -10.113281 C 0.367188 -10.296875 0.265625 -10.539062 0.265625 -10.839844 C 0.265625 -11.140625 0.367188 -11.382812 0.570312 -11.566406 C 0.777344 -11.753906 1.121094 -11.84375 1.601562 -11.84375 L 6.621094 -11.84375 C 7.820312 -11.84375 8.78125 -11.511719 9.511719 -10.84375 C 10.242188 -10.175781 10.605469 -9.382812 10.605469 -8.46875 C 10.605469 -8.03125 10.519531 -7.621094 10.351562 -7.234375 C 10.183594 -6.851562 9.925781 -6.496094 9.578125 -6.171875 C 10.210938 -5.792969 10.683594 -5.351562 11 -4.847656 C 11.316406 -4.34375 11.476562 -3.773438 11.476562 -3.132812 C 11.476562 -2.625 11.359375 -2.15625 11.132812 -1.71875 C 10.964844 -1.386719 10.753906 -1.125 10.507812 -0.929688 C 10.175781 -0.65625 9.769531 -0.429688 9.289062 -0.257812 C 8.804688 -0.0859375 8.203125 0 7.480469 0 L 1.601562 0 C 1.121094 0 0.777344 -0.09375 0.570312 -0.277344 C 0.367188 -0.464844 0.265625 -0.707031 0.265625 -1.007812 C 0.265625 -1.300781 0.367188 -1.539062 0.578125 -1.722656 C 0.785156 -1.910156 1.125 -2 1.601562 -2 Z M 3.914062 -6.921875 L 6.113281 -6.921875 C 6.902344 -6.921875 7.554688 -7.121094 8.078125 -7.519531 C 8.429688 -7.785156 8.601562 -8.117188 8.601562 -8.515625 C 8.601562 -8.867188 8.4375 -9.175781 8.105469 -9.4375 C 7.773438 -9.703125 7.246094 -9.835938 6.523438 -9.835938 L 3.914062 -9.835938 Z M 3.914062 -2 L 7.375 -2 C 8.1875 -2 8.757812 -2.121094 9.09375 -2.363281 C 9.347656 -2.546875 9.472656 -2.804688 9.472656 -3.144531 C 9.472656 -3.546875 9.222656 -3.945312 8.71875 -4.335938 C 8.21875 -4.726562 7.5 -4.921875 6.5625 -4.921875 L 3.914062 -4.921875 Z "/>
</g>
</g>
</defs>
<g fill="rgb(96.078431%, 96.078431%, 96.078431%)" fill-opacity="1">
<use xlink:href="#glyph-0-0" x="30" y="36.650391"/>
<use xlink:href="#glyph-0-1" x="42" y="36.650391"/>
<use xlink:href="#glyph-0-2" x="54" y="36.650391"/>
<use xlink:href="#glyph-0-3" x="66" y="36.650391"/>
<use xlink:href="#glyph-0-3" x="78" y="36.650391"/>
<use xlink:href="#glyph-0-4" x="90" y="36.650391"/>
</g>
</svg>
