<?xml version="1.0" encoding="UTF-8"?>
<svg xmlns="http://www.w3.org/2000/svg" xmlns:xlink="http://www.w3.org/1999/xlink" width="854" height="480" viewBox="0 0 854 480">
<defs>
<g>
<g id="glyph-0-0">
<path d="M 2.90625 -1.480469 C 2.90625 -1.035156 2.765625 -0.664062 2.480469 -0.371094 C 2.199219 -0.0742188 1.871094 0.0742188 1.5 0.0742188 C 1.167969 0.0742188 0.867188 -0.0507812 0.597656 -0.296875 C 0.265625 -0.601562 0.101562 -0.996094 0.101562 -1.480469 C 0.101562 -1.964844 0.265625 -2.359375 0.597656 -2.664062 C 0.867188 -2.910156 1.167969 -3.035156 1.5 -3.035156 C 1.871094 -3.035156 2.199219 -2.886719 2.480469 -2.589844 C 2.765625 -2.296875 2.90625 -1.925781 2.90625 -1.480469 Z M 2.40625 -1.480469 C 2.40625 -1.785156 2.3125 -2.035156 2.128906 -2.234375 C 1.945312 -2.433594 1.734375 -2.535156 1.5 -2.535156 C 1.269531 -2.535156 1.058594 -2.433594 0.875 -2.234375 C 0.691406 -2.035156 0.601562 -1.78125 0.601562 -1.480469 C 0.601562 -1.175781 0.691406 -0.925781 0.875 -0.726562 C 1.058594 -0.527344 1.269531 -0.425781 1.5 -0.425781 C 1.734375 -0.425781 1.945312 -0.527344 2.128906 -0.726562 C 2.3125 -0.925781 2.40625 -1.175781 2.40625 -1.480469 Z "/>
</g>
<g id="glyph-0-1">
<path d="M 1.503906 -0.921875 L 1.15625 0 L 0.6875 0 L 0.265625 -1.714844 C 0.175781 -1.71875 0.105469 -1.746094 0.0585938 -1.792969 C 0.0117188 -1.839844 -0.0078125 -1.898438 -0.0078125 -1.96875 C -0.0078125 -2.042969 0.015625 -2.101562 0.0664062 -2.148438 C 0.117188 -2.195312 0.203125 -2.21875 0.324219 -2.21875 L 0.789062 -2.21875 C 0.910156 -2.21875 0.996094 -2.195312 1.046875 -2.148438 C 1.097656 -2.101562 1.125 -2.039062 1.125 -1.964844 C 1.125 -1.890625 1.097656 -1.828125 1.039062 -1.773438 C 0.992188 -1.734375 0.90625 -1.714844 0.777344 -1.714844 L 0.96875 -0.921875 L 1.28125 -1.734375 L 1.722656 -1.734375 L 2.035156 -0.921875 L 2.230469 -1.714844 C 2.109375 -1.714844 2.027344 -1.726562 1.988281 -1.753906 C 1.910156 -1.804688 1.871094 -1.875 1.871094 -1.96875 C 1.871094 -2.042969 1.894531 -2.101562 1.945312 -2.148438 C 1.996094 -2.195312 2.085938 -2.21875 2.203125 -2.21875 L 2.675781 -2.21875 C 2.796875 -2.21875 2.882812 -2.195312 2.933594 -2.148438 C 2.984375 -2.101562 3.011719 -2.039062 3.011719 -1.964844 C 3.011719 -1.898438 2.988281 -1.84375 2.941406 -1.796875 C 2.898438 -1.75 2.832031 -1.722656 2.742188 -1.714844 L 2.335938 0 L 1.871094 0 Z "/>
</g>
<g id="glyph-0-2">
<path d="M 0.992188 -2.21875 L 0.992188 -2.046875 C 1.085938 -2.125 1.183594 -2.183594 1.296875 -2.222656 C 1.40625 -2.261719 1.523438 -2.28125 1.652344 -2.28125 C 1.949219 -2.28125 2.183594 -2.191406 2.355469 -2.007812 C 2.492188 -1.859375 2.5625 -1.667969 2.5625 -1.429688 L 2.5625 -0.5 C 2.667969 -0.5 2.746094 -0.476562 2.796875 -0.429688 C 2.847656 -0.382812 2.871094 -0.324219 2.871094 -0.25 C 2.871094 -0.175781 2.84375 -0.117188 2.792969 -0.0703125 C 2.742188 -0.0234375 2.65625 0 2.535156 0 L 2.085938 0 C 1.964844 0 1.878906 -0.0234375 1.828125 -0.0703125 C 1.777344 -0.117188 1.75 -0.175781 1.75 -0.25 C 1.75 -0.324219 1.777344 -0.382812 1.828125 -0.429688 C 1.878906 -0.476562 1.953125 -0.5 2.0625 -0.5 L 2.0625 -1.445312 C 2.0625 -1.554688 2.03125 -1.632812 1.972656 -1.683594 C 1.894531 -1.75 1.78125 -1.78125 1.628906 -1.78125 C 1.511719 -1.78125 1.410156 -1.761719 1.324219 -1.714844 C 1.238281 -1.671875 1.128906 -1.574219 0.992188 -1.429688 L 0.992188 -0.5 C 1.121094 -0.5 1.207031 -0.488281 1.242188 -0.464844 C 1.320312 -0.414062 1.363281 -0.34375 1.363281 -0.25 C 1.363281 -0.175781 1.335938 -0.117188 1.285156 -0.0703125 C 1.234375 -0.0234375 1.148438 0 1.027344 0 L 0.460938 0 C 0.339844 0 0.253906 -0.0234375 0.203125 -0.0703125 C 0.152344 -0.117188 0.125 -0.175781 0.125 -0.25 C 0.125 -0.34375 0.164062 -0.414062 0.242188 -0.464844 C 0.28125 -0.488281 0.363281 -0.5 0.492188 -0.5 L 0.492188 -1.714844 C 0.386719 -1.714844 0.308594 -1.738281 0.257812 -1.789062 C 0.207031 -1.835938 0.183594 -1.894531 0.183594 -1.96875 C 0.183594 -2.042969 0.207031 -2.101562 0.261719 -2.148438 C 0.3125 -2.195312 0.398438 -2.21875 0.515625 -2.21875 Z "/>
</g>
<g id="glyph-0-3">
<path d="M 2.757812 -0.855469 L 0.703125 -0.855469 C 0.753906 -0.726562 0.847656 -0.621094 0.980469 -0.539062 C 1.113281 -0.460938 1.292969 -0.421875 1.519531 -0.421875 C 1.703125 -0.421875 1.949219 -0.460938 2.257812 -0.539062 C 2.386719 -0.570312 2.472656 -0.589844 2.523438 -0.589844 C 2.589844 -0.589844 2.644531 -0.566406 2.691406 -0.515625 C 2.734375 -0.46875 2.757812 -0.410156 2.757812 -0.339844 C 2.757812 -0.273438 2.734375 -0.21875 2.6875 -0.171875 C 2.621094 -0.113281 2.460938 -0.0546875 2.210938 0 C 1.957031 0.0546875 1.714844 0.0820312 1.480469 0.0820312 C 1.082031 0.0820312 0.761719 -0.03125 0.519531 -0.257812 C 0.28125 -0.484375 0.160156 -0.761719 0.160156 -1.09375 C 0.160156 -1.445312 0.289062 -1.730469 0.550781 -1.953125 C 0.808594 -2.171875 1.109375 -2.28125 1.449219 -2.28125 C 1.652344 -2.28125 1.839844 -2.246094 2.007812 -2.175781 C 2.179688 -2.105469 2.304688 -2.027344 2.386719 -1.945312 C 2.503906 -1.824219 2.601562 -1.675781 2.679688 -1.496094 C 2.730469 -1.371094 2.757812 -1.230469 2.757812 -1.066406 Z M 2.203125 -1.355469 C 2.125 -1.5 2.027344 -1.605469 1.902344 -1.675781 C 1.777344 -1.746094 1.632812 -1.78125 1.460938 -1.78125 C 1.289062 -1.78125 1.144531 -1.746094 1.019531 -1.675781 C 0.898438 -1.605469 0.796875 -1.5 0.71875 -1.355469 Z "/>
</g>
<g id="glyph-0-4">
<path d="M 1.398438 -2.21875 L 1.398438 -1.90625 C 1.605469 -2.054688 1.773438 -2.15625 1.894531 -2.207031 C 2.015625 -2.257812 2.128906 -2.28125 2.234375 -2.28125 C 2.398438 -2.28125 2.554688 -2.222656 2.707031 -2.101562 C 2.8125 -2.019531 2.863281 -1.9375 2.863281 -1.851562 C 2.863281 -1.78125 2.839844 -1.722656 2.789062 -1.671875 C 2.738281 -1.621094 2.679688 -1.597656 2.609375 -1.597656 C 2.546875 -1.597656 2.484375 -1.628906 2.414062 -1.6875 C 2.347656 -1.75 2.285156 -1.78125 2.230469 -1.78125 C 2.160156 -1.78125 2.058594 -1.738281 1.917969 -1.648438 C 1.777344 -1.5625 1.605469 -1.429688 1.398438 -1.253906 L 1.398438 -0.5 L 2.109375 -0.5 C 2.230469 -0.5 2.316406 -0.476562 2.367188 -0.429688 C 2.417969 -0.382812 2.445312 -0.324219 2.445312 -0.25 C 2.445312 -0.175781 2.417969 -0.117188 2.367188 -0.0703125 C 2.316406 -0.0234375 2.230469 0 2.109375 0 L 0.597656 0 C 0.476562 0 0.390625 -0.0234375 0.339844 -0.0703125 C 0.289062 -0.117188 0.265625 -0.175781 0.265625 -0.25 C 0.265625 -0.324219 0.289062 -0.382812 0.339844 -0.429688 C 0.390625 -0.476562 0.476562 -0.5 0.597656 -0.5 L 0.894531 -0.5 L 0.894531 -1.714844 L 0.714844 -1.714844 C 0.59375 -1.714844 0.507812 -1.738281 0.457031 -1.785156 C 0.40625 -1.832031 0.382812 -1.894531 0.382812 -1.96875 C 0.382812 -2.042969 0.40625 -2.101562 0.457031 -2.148438 C 0.507812 -2.195312 0.59375 -2.21875 0.714844 -2.21875 Z "/>
</g>
</g>
</defs>
<g fill="rgb(10.196078%, 10.196078%, 10.196078%)" fill-opacity="1">
<use xlink:href="#glyph-0-0" x="30" y="24.163086"/>
<use xlink:href="#glyph-0-1" x="33" y="24.163086"/>
<use xlink:href="#glyph-0-2" x="36" y="24.163086"/>
<use xlink:href="#glyph-0-3" x="39" y="24.163086"/>
<use xlink:href="#glyph-0-4" x="42" y="24.163086"/>
</g>
</svg>
