<?xml version="1.0" encoding="UTF-8"?>
<svg xmlns="http://www.w3.org/2000/svg" xmlns:xlink="http://www.w3.org/1999/xlink" width="854" height="480" viewBox="0 0 854 480">
<defs>
<g>
<g id="glyph-0-0">
<path d="M 0.296875 -0.390625 L 0.296875 -1.914062 C 0.214844 -1.914062 0.152344 -1.933594 0.113281 -1.96875 C 0.0742188 -2.003906 0.0546875 -2.050781 0.0546875 -2.109375 C 0.0546875 -2.167969 0.0742188 -2.214844 0.113281 -2.25 C 0.152344 -2.285156 0.222656 -2.304688 0.316406 -2.304688 L 1.128906 -2.300781 C 1.257812 -2.300781 1.378906 -2.277344 1.5 -2.230469 C 1.621094 -2.183594 1.71875 -2.125 1.792969 -2.054688 C 1.847656 -2 1.90625 -1.925781 1.964844 -1.828125 C 2.027344 -1.734375 2.070312 -1.640625 2.101562 -1.546875 C 2.132812 -1.453125 2.148438 -1.335938 2.148438 -1.203125 L 2.148438 -1.015625 C 2.148438 -0.851562 2.121094 -0.707031 2.066406 -0.578125 C 2.007812 -0.449219 1.9375 -0.347656 1.84375 -0.265625 C 1.753906 -0.1875 1.667969 -0.128906 1.589844 -0.0898438 C 1.464844 -0.03125 1.300781 0 1.097656 0 L 0.316406 0 C 0.222656 0 0.15625 -0.0195312 0.113281 -0.0546875 C 0.0742188 -0.0898438 0.0546875 -0.136719 0.0546875 -0.195312 C 0.0546875 -0.253906 0.0742188 -0.300781 0.113281 -0.335938 C 0.152344 -0.371094 0.214844 -0.390625 0.296875 -0.390625 Z M 0.6875 -0.390625 L 1.101562 -0.390625 C 1.253906 -0.390625 1.371094 -0.410156 1.449219 -0.457031 C 1.550781 -0.515625 1.628906 -0.589844 1.679688 -0.679688 C 1.730469 -0.769531 1.757812 -0.882812 1.757812 -1.027344 L 1.757812 -1.210938 C 1.757812 -1.335938 1.734375 -1.441406 1.6875 -1.535156 C 1.613281 -1.679688 1.53125 -1.777344 1.441406 -1.832031 C 1.347656 -1.886719 1.234375 -1.914062 1.097656 -1.914062 L 0.6875 -1.914062 Z "/>
</g>
<g id="glyph-0-1">
<path d="M 0.765625 -0.960938 L 0.765625 -0.390625 L 1.761719 -0.390625 L 1.761719 -0.601562 C 1.761719 -0.695312 1.777344 -0.761719 1.816406 -0.800781 C 1.851562 -0.839844 1.898438 -0.859375 1.957031 -0.859375 C 2.011719 -0.859375 2.058594 -0.839844 2.097656 -0.800781 C 2.132812 -0.761719 2.148438 -0.695312 2.148438 -0.601562 L 2.148438 0 L 0.316406 0 C 0.222656 0 0.15625 -0.0195312 0.117188 -0.0546875 C 0.078125 -0.0898438 0.0585938 -0.136719 0.0585938 -0.195312 C 0.0585938 -0.253906 0.078125 -0.300781 0.117188 -0.335938 C 0.15625 -0.371094 0.226562 -0.390625 0.316406 -0.390625 L 0.378906 -0.390625 L 0.378906 -1.914062 L 0.316406 -1.914062 C 0.222656 -1.914062 0.15625 -1.929688 0.117188 -1.964844 C 0.078125 -2.003906 0.0585938 -2.050781 0.0585938 -2.109375 C 0.0585938 -2.167969 0.078125 -2.214844 0.117188 -2.25 C 0.15625 -2.285156 0.222656 -2.304688 0.316406 -2.304688 L 2.066406 -2.300781 L 2.066406 -1.710938 C 2.066406 -1.617188 2.046875 -1.550781 2.011719 -1.511719 C 1.976562 -1.472656 1.929688 -1.449219 1.871094 -1.449219 C 1.8125 -1.449219 1.765625 -1.46875 1.730469 -1.511719 C 1.695312 -1.550781 1.675781 -1.617188 1.675781 -1.710938 L 1.675781 -1.914062 L 0.765625 -1.914062 L 0.765625 -1.351562 L 1.109375 -1.351562 C 1.109375 -1.453125 1.117188 -1.515625 1.136719 -1.546875 C 1.175781 -1.609375 1.234375 -1.640625 1.304688 -1.640625 C 1.363281 -1.640625 1.410156 -1.617188 1.445312 -1.578125 C 1.480469 -1.539062 1.5 -1.472656 1.5 -1.378906 L 1.5 -0.929688 C 1.5 -0.84375 1.488281 -0.789062 1.46875 -0.757812 C 1.429688 -0.699219 1.375 -0.671875 1.304688 -0.671875 C 1.234375 -0.671875 1.175781 -0.703125 1.136719 -0.761719 C 1.117188 -0.792969 1.109375 -0.859375 1.109375 -0.960938 Z "/>
</g>
<g id="glyph-0-2">
<path d="M 0.679688 -1.566406 L 0.679688 -0.390625 L 0.820312 -0.390625 C 0.914062 -0.390625 0.980469 -0.371094 1.019531 -0.335938 C 1.058594 -0.300781 1.082031 -0.253906 1.082031 -0.195312 C 1.082031 -0.136719 1.0625 -0.0898438 1.019531 -0.0546875 C 0.980469 -0.0195312 0.914062 0 0.820312 0 L 0.308594 0 C 0.214844 0 0.148438 -0.0195312 0.109375 -0.0546875 C 0.0703125 -0.0898438 0.0507812 -0.136719 0.0507812 -0.195312 C 0.0507812 -0.25 0.0703125 -0.296875 0.109375 -0.335938 C 0.148438 -0.371094 0.207031 -0.390625 0.289062 -0.390625 L 0.289062 -1.914062 L 0.230469 -1.914062 C 0.136719 -1.914062 0.0703125 -1.929688 0.03125 -1.964844 C -0.0117188 -2.003906 -0.03125 -2.050781 -0.03125 -2.109375 C -0.03125 -2.167969 -0.0117188 -2.214844 0.03125 -2.25 C 0.0703125 -2.285156 0.136719 -2.304688 0.230469 -2.304688 L 0.679688 -2.300781 L 1.675781 -0.742188 L 1.675781 -1.914062 L 1.535156 -1.914062 C 1.441406 -1.914062 1.375 -1.929688 1.335938 -1.964844 C 1.292969 -2.003906 1.273438 -2.050781 1.273438 -2.109375 C 1.273438 -2.167969 1.292969 -2.214844 1.335938 -2.25 C 1.375 -2.285156 1.441406 -2.304688 1.535156 -2.304688 L 2.046875 -2.300781 C 2.140625 -2.300781 2.207031 -2.285156 2.246094 -2.25 C 2.285156 -2.214844 2.304688 -2.167969 2.304688 -2.109375 C 2.304688 -2.050781 2.285156 -2.003906 2.246094 -1.96875 C 2.207031 -1.929688 2.148438 -1.914062 2.066406 -1.914062 L 2.066406 0 L 1.679688 0 Z "/>
</g>
<g id="glyph-0-3">
<path d="M 1.363281 -0.964844 L 1.363281 -0.390625 L 1.625 -0.390625 C 1.71875 -0.390625 1.785156 -0.371094 1.824219 -0.335938 C 1.867188 -0.300781 1.886719 -0.253906 1.886719 -0.195312 C 1.886719 -0.136719 1.867188 -0.0898438 1.824219 -0.0546875 C 1.785156 -0.0195312 1.71875 0 1.625 0 L 0.710938 0 C 0.621094 0 0.554688 -0.0195312 0.515625 -0.0546875 C 0.472656 -0.0898438 0.453125 -0.136719 0.453125 -0.195312 C 0.453125 -0.253906 0.472656 -0.300781 0.515625 -0.335938 C 0.554688 -0.371094 0.621094 -0.390625 0.710938 -0.390625 L 0.972656 -0.390625 L 0.972656 -0.964844 L 0.332031 -1.914062 C 0.246094 -1.914062 0.179688 -1.929688 0.140625 -1.96875 C 0.101562 -2.003906 0.0820312 -2.050781 0.0820312 -2.109375 C 0.0820312 -2.167969 0.101562 -2.214844 0.140625 -2.25 C 0.179688 -2.285156 0.25 -2.304688 0.34375 -2.304688 L 0.695312 -2.300781 C 0.789062 -2.300781 0.855469 -2.285156 0.894531 -2.25 C 0.933594 -2.214844 0.957031 -2.167969 0.957031 -2.109375 C 0.957031 -2.019531 0.902344 -1.957031 0.800781 -1.914062 L 1.171875 -1.371094 L 1.53125 -1.914062 C 1.472656 -1.933594 1.433594 -1.960938 1.410156 -1.996094 C 1.386719 -2.027344 1.375 -2.066406 1.375 -2.109375 C 1.375 -2.167969 1.394531 -2.214844 1.433594 -2.25 C 1.472656 -2.285156 1.539062 -2.300781 1.632812 -2.304688 L 2 -2.300781 C 2.09375 -2.300781 2.160156 -2.285156 2.199219 -2.25 C 2.238281 -2.214844 2.261719 -2.167969 2.261719 -2.109375 C 2.261719 -2.050781 2.238281 -2.003906 2.199219 -1.964844 C 2.160156 -1.929688 2.09375 -1.914062 2 -1.914062 Z "/>
</g>
</g>
</defs>
<g fill="rgb(96.078431%, 96.078431%, 96.078431%)" fill-opacity="1">
<use xlink:href="#glyph-0-0" x="30" y="23.238281"/>
<use xlink:href="#glyph-0-1" x="32" y="23.238281"/>
<use xlink:href="#glyph-0-2" x="34" y="23.238281"/>
<use xlink:href="#glyph-0-3" x="36" y="23.238281"/>
</g>
</svg>
